<svg width="180" height="180" viewBox="0 0 180 180" fill="none" xmlns="http://www.w3.org/2000/svg">
<g clip-path="url(#clip0_3359_26907)">
<g clip-path="url(#clip1_3359_26907)">
<path d="M80.6058 42.8483L108.007 123.296L41.5575 142.532L14.1564 62.0851L80.6058 42.8483Z" fill="#3C3C3C"/>
<path d="M41.5448 142.658C41.5209 142.655 41.4981 142.646 41.4793 142.631C41.4605 142.616 41.4464 142.596 41.4386 142.573L14.0375 62.1256C14.0321 62.1095 14.0299 62.0925 14.0312 62.0755C14.0325 62.0585 14.0372 62.042 14.045 62.0269C14.061 61.9965 14.0886 61.9738 14.1215 61.9643L80.5709 42.7275C80.602 42.7185 80.6353 42.7218 80.664 42.7367C80.6927 42.7517 80.7145 42.7771 80.7249 42.8077L108.126 123.255C108.137 123.288 108.134 123.323 108.119 123.354C108.111 123.369 108.1 123.382 108.087 123.393C108.074 123.404 108.058 123.412 108.042 123.416L41.5926 142.653C41.5766 142.658 41.5604 142.659 41.5448 142.658ZM14.318 62.1691L41.638 142.378L107.846 123.212L80.5255 43.0023L14.318 62.1691Z" fill="#8E8E8E"/>
<path d="M26.7123 62.4496C25.8484 62.6996 25.3816 63.5751 25.6664 64.4115C25.9485 65.2395 26.8744 65.7118 27.7383 65.4616C28.5941 65.2138 29.0609 64.3384 28.779 63.5104C28.494 62.6741 27.568 62.2018 26.7123 62.4496Z" fill="#8E8E8E"/>
<path d="M27.0819 65.6441C26.3956 65.5737 25.7753 65.121 25.5475 64.452C25.4003 64.0197 25.4334 63.5628 25.6405 63.1652C25.8528 62.7579 26.2208 62.4609 26.6773 62.3288C27.5967 62.0629 28.5928 62.5744 28.8978 63.47C29.0436 63.898 29.01 64.3522 28.8034 64.7489C28.5916 65.1553 28.2257 65.4513 27.7732 65.5824C27.5488 65.6471 27.3141 65.6681 27.0819 65.6441ZM26.7473 62.5701C26.3574 62.6829 26.0436 62.9354 25.8634 63.2811C25.6883 63.6172 25.6605 64.0042 25.7856 64.3707C26.0462 65.1363 26.9067 65.5714 27.7033 65.3407C28.0893 65.229 28.4009 64.9775 28.5805 64.6327C28.7551 64.2975 28.7832 63.9134 28.6598 63.5509C28.3977 62.7807 27.5395 62.3406 26.7473 62.5701ZM41.3171 58.2213C40.4531 58.4714 39.9863 59.3468 40.2712 60.1832C40.5532 61.0112 41.4792 61.4835 42.3431 61.2333C43.207 60.9833 43.6738 60.1078 43.3918 59.2798C43.1068 58.4435 42.1809 57.9712 41.3171 58.2213Z" fill="#8E8E8E"/>
<path d="M41.6864 61.416C41.0002 61.3457 40.3799 60.893 40.1519 60.2239C40.0048 59.7917 40.0379 59.3346 40.2451 58.937C40.4573 58.5298 40.8254 58.2328 41.2818 58.1007C42.2061 57.8332 43.2055 58.344 43.5105 59.2395C43.6561 59.667 43.6228 60.1204 43.4165 60.5163C43.2038 60.9243 42.835 61.2219 42.3778 61.3544C42.1534 61.4191 41.9187 61.44 41.6864 61.416ZM41.947 58.289C41.7514 58.269 41.5497 58.2849 41.3519 58.3422C40.962 58.455 40.6482 58.7075 40.468 59.0532C40.2929 59.3894 40.2651 59.7763 40.39 60.1429C40.6508 60.9085 41.5117 61.3437 42.3079 61.1129C42.6986 61 43.013 60.7468 43.1936 60.4003C43.3678 60.0659 43.396 59.6825 43.2726 59.3207C43.0754 58.7415 42.5393 58.3498 41.947 58.289ZM55.9216 53.9933C55.0659 54.241 54.599 55.1165 54.8839 55.9529C55.1659 56.7809 56.0919 57.2532 56.9476 57.0054C57.8115 56.7553 58.2783 55.8799 57.9963 55.0519C57.7113 54.2155 56.7855 53.7432 55.9216 53.9933Z" fill="#8E8E8E"/>
<path d="M56.2974 57.1873C55.6128 57.1171 54.9932 56.6636 54.7649 55.9934C54.6175 55.5605 54.6506 55.1027 54.8582 54.7043C55.0696 54.2988 55.4347 54.0034 55.8866 53.8726C56.8109 53.6052 57.8103 54.1159 58.1153 55.0114C58.2609 55.4389 58.2276 55.8923 58.0213 56.2883C57.8086 56.6962 57.4398 56.9939 56.9826 57.1263C56.7602 57.1904 56.5276 57.2111 56.2974 57.1873ZM56.5518 54.061C56.3562 54.0409 56.1545 54.0569 55.9567 54.1142C55.5714 54.2257 55.2606 54.4766 55.0814 54.8206C54.9058 55.1576 54.8781 55.5453 55.0032 55.9124C55.2638 56.6779 56.1203 57.1142 56.9127 56.8847C57.3034 56.7718 57.6178 56.5186 57.7984 56.1721C57.9726 55.8377 58.0008 55.4543 57.8774 55.0925C57.6803 54.5134 57.1441 54.1217 56.5518 54.061ZM70.5347 49.763C69.6704 50.0133 69.2039 50.8885 69.4888 51.7249C69.7708 52.553 70.6963 53.0253 71.5607 52.775C72.4164 52.5273 72.8914 51.6495 72.6094 50.8215C72.3244 49.9851 71.3904 49.5153 70.5347 49.763Z" fill="#8E8E8E"/>
<path d="M70.904 52.9576C70.2179 52.8872 69.5975 52.4345 69.3696 51.7654C69.2223 51.3331 69.2554 50.876 69.4626 50.4784C69.6748 50.0713 70.0429 49.7744 70.4995 49.6422C71.4238 49.3747 72.4233 49.8856 72.7282 50.781C72.8731 51.2066 72.8392 51.6592 72.6325 52.0559C72.419 52.4657 72.0507 52.7639 71.5955 52.8958C71.3711 52.9606 71.1364 52.9815 70.904 52.9576ZM71.1645 49.8304C70.969 49.8104 70.7673 49.8265 70.5695 49.8836C70.1795 49.9964 69.8656 50.2489 69.6855 50.5945C69.5104 50.9306 69.4826 51.3176 69.6076 51.6843C69.8685 52.4498 70.7293 52.8851 71.5255 52.6542C71.9141 52.5417 72.2281 52.2879 72.4095 51.9397C72.5841 51.6045 72.6128 51.2217 72.4902 50.8619C72.293 50.283 71.7569 49.8912 71.1645 49.8304ZM25.1282 76.004C25.0991 76.0011 25.072 75.9882 25.0514 75.9674C25.0308 75.9466 25.0181 75.9193 25.0155 75.8902C25.0129 75.8611 25.0205 75.832 25.037 75.8079C25.0535 75.7838 25.0779 75.7662 25.106 75.7581L68.0647 63.3218C68.0967 63.3125 68.1311 63.3163 68.1603 63.3324C68.1895 63.3485 68.2112 63.3756 68.2205 63.4076C68.2297 63.4396 68.2259 63.474 68.2098 63.5033C68.1937 63.5325 68.1667 63.5541 68.1347 63.5634L25.176 75.9997C25.16 76.0042 25.1438 76.0056 25.1282 76.004ZM28.1216 84.7926C28.0925 84.7896 28.0654 84.7767 28.0448 84.7559C28.0242 84.7352 28.0115 84.7079 28.0089 84.6788C28.0063 84.6497 28.0139 84.6205 28.0304 84.5964C28.0469 84.5723 28.0713 84.5547 28.0994 84.5467L40.3979 80.9863C40.4299 80.977 40.4643 80.9808 40.4935 80.9969C40.5227 81.013 40.5444 81.0401 40.5536 81.0721C40.5629 81.1041 40.5591 81.1385 40.543 81.1678C40.5269 81.197 40.4999 81.2186 40.4679 81.2279L28.1694 84.7882C28.1534 84.7928 28.1372 84.7942 28.1216 84.7926ZM43.6425 80.2994C43.6134 80.2965 43.5862 80.2835 43.5657 80.2628C43.5451 80.242 43.5324 80.2147 43.5298 80.1856C43.5272 80.1565 43.5348 80.1274 43.5513 80.1033C43.5678 80.0792 43.5922 80.0616 43.6203 80.0535L69.1896 72.6514C69.2216 72.6421 69.256 72.6459 69.2852 72.662C69.3144 72.6781 69.3361 72.7051 69.3453 72.7372C69.3546 72.7692 69.3508 72.8036 69.3347 72.8328C69.3186 72.862 69.2916 72.8837 69.2596 72.893L43.6903 80.2951C43.6743 80.2996 43.6581 80.301 43.6425 80.2994ZM31.115 93.5807C31.0859 93.5778 31.0588 93.5649 31.0382 93.5441C31.0177 93.5233 31.005 93.496 31.0023 93.4669C30.9997 93.4378 31.0073 93.4087 31.0238 93.3846C31.0404 93.3605 31.0648 93.3429 31.0928 93.3348L80.4645 79.042C80.4965 79.0327 80.5309 79.0365 80.5601 79.0526C80.5894 79.0687 80.611 79.0958 80.6203 79.1278C80.6295 79.1598 80.6257 79.1942 80.6096 79.2235C80.5935 79.2527 80.5665 79.2743 80.5345 79.2836L31.1629 93.5763C31.1473 93.5808 31.1311 93.5823 31.115 93.5807ZM34.1083 102.369C34.0792 102.366 34.0521 102.353 34.0315 102.332C34.011 102.311 33.9983 102.284 33.9956 102.255C33.993 102.226 34.0006 102.197 34.0171 102.173C34.0337 102.149 34.0581 102.131 34.0861 102.123L67.2315 92.5276C67.2635 92.5183 67.2979 92.5221 67.3271 92.5382C67.3563 92.5543 67.378 92.5813 67.3872 92.6134C67.3965 92.6454 67.3927 92.6798 67.3766 92.709C67.3605 92.7383 67.3335 92.7599 67.3015 92.7692L34.1562 102.364C34.1407 102.369 34.1244 102.37 34.1083 102.369ZM70.6666 91.7854C70.6375 91.7825 70.6104 91.7695 70.5898 91.7488C70.5692 91.728 70.5566 91.7007 70.5539 91.6716C70.5513 91.6425 70.5589 91.6134 70.5754 91.5893C70.5919 91.5652 70.6163 91.5476 70.6444 91.5395L89.0953 86.1982C89.1273 86.1889 89.1617 86.1927 89.1909 86.2088C89.2201 86.2249 89.2418 86.2519 89.2511 86.284C89.2603 86.316 89.2565 86.3504 89.2404 86.3796C89.2243 86.4088 89.1973 86.4305 89.1653 86.4397L70.7144 91.7811C70.6984 91.7856 70.6822 91.787 70.6666 91.7854ZM37.1039 111.163C37.0748 111.16 37.0476 111.147 37.0271 111.127C37.0065 111.106 36.9938 111.079 36.9912 111.05C36.9886 111.02 36.9962 110.991 37.0127 110.967C37.0292 110.943 37.0536 110.925 37.0817 110.917L88.9512 95.9014C88.9829 95.8934 89.0164 95.898 89.0447 95.9142C89.073 95.9304 89.0939 95.957 89.103 95.9884C89.1121 96.0197 89.1087 96.0534 89.0934 96.0822C89.0781 96.1111 89.0522 96.1329 89.0212 96.143L37.1517 111.159C37.1357 111.164 37.1195 111.165 37.1039 111.163ZM40.0972 119.951C40.0681 119.949 40.041 119.936 40.0204 119.915C39.9998 119.894 39.9871 119.867 39.9845 119.838C39.9819 119.809 39.9895 119.779 40.006 119.755C40.0225 119.731 40.0469 119.714 40.075 119.706L65.9812 112.206C66.0128 112.198 66.0463 112.202 66.0747 112.219C66.103 112.235 66.1239 112.261 66.133 112.293C66.1421 112.324 66.1386 112.358 66.1234 112.387C66.1081 112.415 66.0822 112.437 66.0512 112.447L40.145 119.947C40.129 119.952 40.1128 119.953 40.0972 119.951Z" fill="#8E8E8E"/>
<path d="M108.007 123.296L107.009 126.602L40.5593 145.839L41.5576 142.533L108.007 123.296Z" fill="#B8B8B8"/>
<path d="M40.5467 145.964C40.5283 145.962 40.5105 145.956 40.4946 145.946C40.4787 145.937 40.4652 145.924 40.4549 145.908C40.4446 145.893 40.4379 145.875 40.4351 145.857C40.4324 145.839 40.4338 145.82 40.4392 145.802L41.4374 142.496C41.4434 142.476 41.4544 142.458 41.4693 142.443C41.4842 142.428 41.5025 142.418 41.5226 142.412L107.972 123.175C107.994 123.169 108.017 123.168 108.039 123.174C108.061 123.18 108.081 123.191 108.096 123.207C108.112 123.223 108.124 123.243 108.129 123.265C108.135 123.287 108.134 123.31 108.127 123.332L107.129 126.638C107.123 126.658 107.112 126.676 107.097 126.691C107.082 126.706 107.064 126.717 107.044 126.723L40.5945 145.959C40.579 145.964 40.5628 145.965 40.5467 145.964ZM41.6584 142.634L40.7467 145.654L106.908 126.5L107.82 123.481L41.6584 142.634Z" fill="#8E8E8E"/>
<path d="M41.5576 142.533L40.5594 145.839L13.1583 65.3914L14.1565 62.0852L41.5576 142.533Z" fill="#8E8E8E"/>
<path d="M40.5467 145.964C40.5227 145.961 40.5 145.952 40.4812 145.937C40.4624 145.922 40.4482 145.902 40.4405 145.879L13.0394 65.4318C13.0309 65.4069 13.0305 65.3801 13.0382 65.355L14.0364 62.0487C14.0441 62.0233 14.0597 62.0009 14.0809 61.9849C14.1021 61.9688 14.1279 61.9599 14.1545 61.9595C14.1811 61.959 14.2071 61.967 14.2289 61.9822C14.2507 61.9975 14.267 62.0193 14.2757 62.0445L41.6768 142.492C41.6852 142.517 41.6856 142.544 41.678 142.569L40.6797 145.875C40.6713 145.903 40.6534 145.927 40.6292 145.943C40.6049 145.959 40.5757 145.967 40.5467 145.964ZM13.2904 65.3889L40.5522 145.428L41.4256 142.535L14.1639 62.4961L13.2904 65.3889Z" fill="#8E8E8E"/>
<path d="M24.8502 59.014L22.6345 59.6348C22.0333 57.2685 21.8041 55.2458 22.0496 54.4836C22.1072 54.3048 22.1876 54.2046 22.2866 54.1769L24.5023 53.556C24.4033 53.5838 24.3229 53.684 24.2653 53.8628C24.0197 54.6249 24.249 56.6475 24.8502 59.014Z" fill="#B8B8B8"/>
<path d="M22.6218 59.76C22.5961 59.7574 22.5719 59.747 22.5524 59.7302C22.5329 59.7133 22.519 59.6909 22.5128 59.6659C21.9064 57.2785 21.6776 55.2293 21.9301 54.4452C22.0003 54.2273 22.1089 54.0963 22.2529 54.056L24.4686 53.4352C24.4846 53.4302 24.5015 53.4285 24.5182 53.4301C24.535 53.4318 24.5512 53.4368 24.5659 53.4448C24.5807 53.4528 24.5937 53.4637 24.6042 53.4769C24.6146 53.49 24.6224 53.5051 24.6269 53.5213C24.6314 53.5375 24.6327 53.5544 24.6306 53.5711C24.6284 53.5877 24.623 53.6038 24.6146 53.6183C24.6061 53.6329 24.5949 53.6456 24.5814 53.6557C24.568 53.6658 24.5527 53.6731 24.5364 53.6772C24.4803 53.6929 24.4267 53.7726 24.3851 53.9014C24.146 54.6435 24.3764 56.6382 24.9723 58.983C24.9804 59.0148 24.9757 59.0485 24.9592 59.0769C24.9428 59.1053 24.9159 59.1262 24.8843 59.135L22.6686 59.7558C22.6534 59.7602 22.6375 59.7616 22.6218 59.76ZM24.16 53.7827L22.3206 54.2981C22.2645 54.3138 22.2108 54.3935 22.1693 54.5223C21.9345 55.2512 22.1526 57.1885 22.7249 59.479L24.6985 58.926C24.1144 56.5897 23.8974 54.5952 24.1456 53.8244C24.1504 53.8101 24.1551 53.7961 24.16 53.7827Z" fill="#8E8E8E"/>
<path d="M28.5602 63.9674L26.3445 64.5883C26.1127 62.6132 25.502 60.0401 24.7129 57.7045C23.6249 54.4839 22.4685 52.4985 21.8637 52.6679L24.0794 52.047C24.6841 51.8776 25.8406 53.8631 26.9286 57.0837C27.7176 59.4192 28.3283 61.9924 28.5602 63.9674Z" fill="#8E8E8E"/>
<path d="M26.3317 64.7133C26.3033 64.7103 26.2767 64.6978 26.2563 64.6777C26.2359 64.6576 26.223 64.6312 26.2196 64.6029C25.9894 62.6404 25.3817 60.0766 24.5938 57.7447C24.0682 56.1889 23.5162 54.886 22.9978 53.9771C22.4556 53.0268 22.0752 52.7402 21.898 52.7886L21.8974 52.7887C21.8813 52.7937 21.8645 52.7954 21.8477 52.7937C21.831 52.7921 21.8148 52.7871 21.8 52.7791C21.7853 52.771 21.7723 52.7601 21.7618 52.747C21.7513 52.7339 21.7436 52.7187 21.7391 52.7026C21.7345 52.6864 21.7333 52.6695 21.7354 52.6528C21.7375 52.6361 21.743 52.6201 21.7514 52.6055C21.7599 52.591 21.7711 52.5783 21.7845 52.5682C21.798 52.5581 21.8133 52.5508 21.8296 52.5467L21.83 52.5466L24.0453 51.926C24.9051 51.6843 26.1992 54.5325 27.0475 57.0434C27.8404 59.3902 28.4524 61.9731 28.6848 63.9528C28.6883 63.9825 28.681 64.0125 28.6643 64.0374C28.6476 64.0622 28.6226 64.0803 28.5938 64.0884L26.3781 64.7092C26.363 64.7135 26.3473 64.7149 26.3317 64.7133ZM22.302 52.6756C23.1166 53.2659 24.1282 55.5807 24.8322 57.6643C25.6057 59.9545 26.2072 62.4687 26.4517 64.4276L28.4226 63.8754C28.1829 61.9266 27.5829 59.413 26.8096 57.1238C26.284 55.568 25.732 54.2652 25.2137 53.3563C24.6709 52.405 24.2896 52.1189 24.1132 52.168L22.302 52.6756Z" fill="#8E8E8E"/>
<path d="M21.5663 53.0528C21.9906 51.7354 23.4014 53.8229 24.7129 57.7046C25.502 60.0401 26.1127 62.6133 26.3445 64.5884L25.8586 63.6778C25.6722 62.1009 25.1858 60.0487 24.5572 58.188C23.5125 55.0956 22.3878 53.434 22.0497 54.4837C21.8043 55.2457 22.0335 57.2684 22.6346 59.6348L22.353 59.7124C21.5964 56.7371 21.2584 54.0088 21.5663 53.0528Z" fill="#8E8E8E"/>
<path d="M26.3316 64.7132C26.3111 64.7111 26.2914 64.704 26.2743 64.6925C26.2572 64.681 26.2432 64.6655 26.2335 64.6473L25.7478 63.7367C25.7404 63.7229 25.7357 63.7078 25.7339 63.6923C25.5483 62.123 25.0639 60.0802 24.4381 58.228C23.587 55.7086 22.741 54.3341 22.3628 54.2953C22.357 54.2947 22.3512 54.2944 22.3454 54.2944C22.2603 54.295 22.2028 54.4185 22.1694 54.522C21.9303 55.2641 22.1607 57.2588 22.7565 59.6037C22.7646 59.6356 22.7599 59.6694 22.7434 59.6978C22.7268 59.7263 22.6998 59.7471 22.668 59.7558L22.3864 59.8333C22.3539 59.8423 22.3191 59.8377 22.2899 59.8208C22.2754 59.8124 22.2628 59.8012 22.2528 59.7879C22.2427 59.7745 22.2354 59.7593 22.2314 59.7431C21.4524 56.6799 21.1371 53.9756 21.4469 53.0141C21.5746 52.6176 21.7831 52.5331 21.9354 52.5322C22.7952 52.5241 23.9929 55.1793 24.8324 57.6643C25.6254 60.0119 26.2374 62.5947 26.4695 64.5737C26.4716 64.5924 26.4695 64.6113 26.4634 64.6291C26.4572 64.6469 26.4472 64.663 26.4339 64.6764C26.4207 64.6898 26.4047 64.7001 26.387 64.7064C26.3692 64.7128 26.3503 64.7151 26.3316 64.7132ZM25.9808 63.6393L26.1272 63.9136C25.8493 62.0621 25.2923 59.8122 24.5939 57.7446C23.492 54.4831 22.4235 52.7809 21.937 52.7834C21.8112 52.7843 21.731 52.9512 21.6861 53.0912C21.3983 53.9845 21.7097 56.6318 22.4434 59.5568L22.4827 59.546C21.8987 57.2099 21.6818 55.2158 21.93 54.4449C22.0366 54.1144 22.2138 54.044 22.3436 54.043C23.0351 54.0387 24.0048 56.1601 24.6763 58.1476C25.3043 60.0062 25.7914 62.0569 25.9808 63.6393Z" fill="#8E8E8E"/>
<path d="M39.4554 54.7857L37.2397 55.4065C36.6385 53.0402 36.4093 51.0175 36.6548 50.2553C36.7124 50.0765 36.7928 49.9763 36.8918 49.9486L39.1075 49.3278C39.0085 49.3555 38.9281 49.4557 38.8705 49.6345C38.6249 50.3967 38.8542 52.4193 39.4554 54.7857Z" fill="#B8B8B8"/>
<path d="M37.2267 55.5317C37.201 55.5292 37.1768 55.5188 37.1573 55.5019C37.1378 55.4851 37.1239 55.4626 37.1177 55.4376C36.5112 53.05 36.2825 51.0008 36.5349 50.2171C36.6052 49.9992 36.7137 49.8682 36.8578 49.8279L39.073 49.2071L39.0733 49.207C39.0892 49.2026 39.1058 49.2013 39.1222 49.2033C39.1386 49.2052 39.1544 49.2104 39.1688 49.2185C39.1832 49.2266 39.1959 49.2374 39.2061 49.2504C39.2162 49.2634 39.2238 49.2782 39.2282 49.2941C39.2327 49.31 39.234 49.3266 39.232 49.343C39.23 49.3594 39.2249 49.3752 39.2168 49.3896C39.2087 49.404 39.1978 49.4166 39.1849 49.4268C39.1719 49.437 39.157 49.4446 39.1411 49.449C39.0851 49.4647 39.0314 49.5444 38.9899 49.6732C38.7508 50.4153 38.9812 52.4099 39.5771 54.7549C39.5852 54.7867 39.5806 54.8204 39.5641 54.8488C39.5477 54.8772 39.5208 54.898 39.4892 54.9068L37.2735 55.5277C37.2583 55.532 37.2424 55.5333 37.2267 55.5317ZM38.7648 49.5545L36.9254 50.0698C36.8694 50.0856 36.8157 50.1652 36.7742 50.294C36.5392 51.0228 36.7575 52.9602 37.3298 55.2508L39.3034 54.6977C38.7192 52.3613 38.5023 50.3668 38.7504 49.5961C38.7551 49.5819 38.76 49.568 38.7648 49.5545Z" fill="#8E8E8E"/>
<path d="M43.1652 59.7394L40.9495 60.3602C40.7177 58.3852 40.107 55.812 39.3179 53.4765C38.2299 50.2559 37.0734 48.2705 36.4686 48.4398L38.6843 47.819C39.289 47.6495 40.4456 49.6351 41.5336 52.8556C42.3226 55.1912 42.9333 57.7644 43.1652 59.7394Z" fill="#8E8E8E"/>
<path d="M40.9367 60.4853C40.9082 60.4823 40.8816 60.4698 40.8613 60.4497C40.8409 60.4296 40.8279 60.4032 40.8246 60.3748C40.5941 58.4115 39.9864 55.8478 39.1987 53.5167C38.6731 51.9608 38.1212 50.658 37.6028 49.7492C37.0602 48.7978 36.6782 48.5113 36.5024 48.5609C36.4863 48.5659 36.4694 48.5676 36.4527 48.566C36.436 48.5643 36.4198 48.5593 36.405 48.5513C36.3903 48.5433 36.3773 48.5323 36.3668 48.5192C36.3563 48.5061 36.3486 48.491 36.3441 48.4748C36.3395 48.4586 36.3383 48.4417 36.3404 48.425C36.3425 48.4083 36.348 48.3923 36.3564 48.3777C36.3648 48.3632 36.3761 48.3505 36.3895 48.3404C36.403 48.3303 36.4183 48.323 36.4346 48.3189L38.6503 47.6981C39.5081 47.457 40.8041 50.3044 41.6525 52.8155C42.4454 55.1622 43.0574 57.7451 43.2898 59.7249C43.2933 59.7546 43.286 59.7846 43.2693 59.8095C43.2526 59.8343 43.2276 59.8524 43.1988 59.8605L40.9831 60.4813C40.968 60.4855 40.9523 60.4869 40.9367 60.4853ZM36.9071 48.4477C37.7217 49.038 38.7332 51.3528 39.4371 53.4363C40.2105 55.7257 40.812 58.2402 41.0567 60.1997L43.0276 59.6474C42.7879 57.6985 42.1879 55.185 41.4146 52.8959C40.8888 51.3399 40.3369 50.0371 39.8185 49.1284C39.2758 48.177 38.8948 47.8906 38.7182 47.9401L36.9071 48.4477Z" fill="#8E8E8E"/>
<path d="M36.1713 48.8246C36.5956 47.5072 38.0064 49.5946 39.3179 53.4763C40.107 55.8118 40.7177 58.3851 40.9495 60.3601L40.4636 59.4495C40.2772 57.8726 39.7907 55.8204 39.1622 53.9598C38.1175 50.8674 36.9928 49.2057 36.6547 50.2554C36.4093 51.0174 36.6384 53.0401 37.2396 55.4066L36.958 55.4841C36.2014 52.5088 35.8634 49.7805 36.1713 48.8246Z" fill="#8E8E8E"/>
<path d="M40.9367 60.4852C40.9162 60.4831 40.8965 60.476 40.8794 60.4645C40.8623 60.453 40.8483 60.4375 40.8386 60.4193L40.3527 59.5087C40.3454 59.4949 40.3406 59.4799 40.3388 59.4644C40.1534 57.8958 39.6691 55.8532 39.0431 54.0001C38.192 51.4806 37.3459 50.1061 36.9677 50.0673C36.9618 50.0667 36.9562 50.0664 36.9505 50.0664C36.8654 50.0671 36.8078 50.1906 36.7745 50.294C36.5353 51.036 36.7657 53.0306 37.3616 55.3757C37.3697 55.4076 37.365 55.4414 37.3484 55.4699C37.3319 55.4983 37.3048 55.5191 37.2731 55.5279L36.9914 55.6054C36.9753 55.6098 36.9585 55.6109 36.942 55.6088C36.9254 55.6066 36.9094 55.6012 36.895 55.5928C36.8806 55.5844 36.868 55.5732 36.8579 55.5599C36.8478 55.5466 36.8405 55.5314 36.8364 55.5152C36.0575 52.4518 35.7422 49.7476 36.0518 48.7861C36.1795 48.3897 36.3881 48.3052 36.5403 48.3042C37.3959 48.2944 38.5977 50.9513 39.4373 53.4364C40.2302 55.7831 40.8421 58.366 41.0746 60.3457C41.0767 60.3644 41.0746 60.3834 41.0684 60.4011C41.0623 60.4189 41.0522 60.4351 41.039 60.4485C41.0258 60.4619 41.0097 60.4721 40.992 60.4785C40.9743 60.4848 40.9554 60.4871 40.9367 60.4852ZM40.5856 59.4113L40.7321 59.6858C40.4542 57.8336 39.8971 55.5836 39.1987 53.5167C38.0968 50.2551 37.0301 48.5518 36.5418 48.5555C36.416 48.5563 36.3358 48.7233 36.2909 48.8632C36.0031 49.7564 36.3147 52.4037 37.0483 55.3289L37.0876 55.318C36.5036 52.9818 36.2866 50.9877 36.535 50.2169C36.6414 49.8864 36.8187 49.816 36.9486 49.815C37.6451 49.8138 38.6097 51.9321 39.2812 53.9196C39.9095 55.7791 40.3963 57.8297 40.5856 59.4113Z" fill="#8E8E8E"/>
<path d="M54.0604 50.5577L51.8447 51.1785C51.2435 48.8122 51.0143 46.7895 51.2598 46.0273C51.3174 45.8485 51.3978 45.7483 51.4968 45.7206L53.7125 45.0998C53.6135 45.1275 53.5331 45.2277 53.4755 45.4065C53.2299 46.1687 53.4592 48.1914 54.0604 50.5577Z" fill="#B8B8B8"/>
<path d="M51.8319 51.3036C51.8062 51.301 51.782 51.2906 51.7625 51.2738C51.743 51.2569 51.7291 51.2345 51.7229 51.2095C51.1164 48.8221 50.8875 46.7728 51.14 45.9888C51.2103 45.7709 51.3188 45.6399 51.4629 45.5996L53.6776 44.979L53.6785 44.9789C53.6946 44.9739 53.7115 44.9722 53.7282 44.9738C53.7449 44.9755 53.7611 44.9805 53.7759 44.9885C53.7907 44.9965 53.8037 45.0074 53.8141 45.0206C53.8246 45.0337 53.8323 45.0488 53.8369 45.065C53.8414 45.0812 53.8426 45.0981 53.8405 45.1148C53.8384 45.1314 53.833 45.1475 53.8245 45.1621C53.8161 45.1766 53.8048 45.1893 53.7914 45.1994C53.778 45.2095 53.7627 45.2168 53.7464 45.2209C53.6903 45.2366 53.6366 45.3163 53.5951 45.4451C53.356 46.1872 53.5864 48.1819 54.1822 50.5267C54.1903 50.5585 54.1857 50.5922 54.1692 50.6206C54.1528 50.649 54.1259 50.6699 54.0942 50.6787L51.8787 51.2995C51.8635 51.3038 51.8476 51.3052 51.8319 51.3036ZM53.3701 45.3263L51.5307 45.8417C51.4746 45.8574 51.4209 45.9371 51.3794 46.0659C51.1446 46.7949 51.3627 48.7321 51.9351 51.0226L53.9086 50.4696C53.3245 48.1333 53.1075 46.1388 53.3557 45.3679C53.3605 45.3538 53.3652 45.3399 53.3701 45.3263Z" fill="#8E8E8E"/>
<path d="M57.7702 55.5111L55.5545 56.132C55.3227 54.1569 54.712 51.5838 53.9229 49.2482C52.8349 46.0276 51.6784 44.0422 51.0736 44.2116L53.2893 43.5907C53.894 43.4213 55.0506 45.4068 56.1386 48.6274C56.9276 50.9628 57.5383 53.536 57.7702 55.5111Z" fill="#8E8E8E"/>
<path d="M55.5416 56.2571C55.5131 56.2542 55.4865 56.2417 55.4661 56.2216C55.4457 56.2015 55.4328 56.1751 55.4294 56.1467C55.1991 54.1834 54.5912 51.6197 53.8036 49.2885C53.2779 47.7326 52.726 46.4298 52.2076 45.5209C51.665 44.5697 51.2833 44.2831 51.1073 44.3327C51.0914 44.3371 51.0748 44.3384 51.0584 44.3364C51.042 44.3345 51.0261 44.3293 51.0118 44.3212C50.9974 44.3131 50.9847 44.3023 50.9745 44.2893C50.9643 44.2763 50.9568 44.2615 50.9524 44.2456C50.9479 44.2297 50.9466 44.2131 50.9486 44.1967C50.9506 44.1803 50.9557 44.1645 50.9638 44.1501C50.9719 44.1357 50.9827 44.1231 50.9957 44.1129C51.0087 44.1027 51.0236 44.0951 51.0394 44.0907L51.0398 44.0906L53.255 43.47C54.1131 43.2289 55.409 46.0763 56.2572 48.5874C57.0503 50.9349 57.6623 53.5177 57.8945 55.4967C57.898 55.5265 57.8907 55.5565 57.8741 55.5813C57.8574 55.6062 57.8324 55.6243 57.8035 55.6323L55.588 56.2532C55.5729 56.2574 55.5571 56.2587 55.5416 56.2571ZM51.5118 44.2195C52.3263 44.8098 53.338 47.1245 54.0419 49.2081C54.8154 51.4976 55.4168 54.0119 55.6616 55.9715L57.6323 55.4193C57.3929 53.471 56.7929 50.9575 56.0193 48.6677C55.4937 47.1119 54.9418 45.8091 54.4234 44.9003C53.8807 43.949 53.4986 43.6628 53.3229 43.712L51.5118 44.2195Z" fill="#8E8E8E"/>
<path d="M50.7762 44.5965C51.2006 43.2791 52.6114 45.3666 53.9229 49.2483C54.712 51.5838 55.3227 54.157 55.5545 56.1321L55.0686 55.2215C54.8822 53.6446 54.3957 51.5924 53.7672 49.7317C52.7225 46.6393 51.5978 44.9777 51.2597 46.0274C51.0142 46.7894 51.2434 48.8121 51.8446 51.1785L51.563 51.2561C50.8064 48.2808 50.4684 45.5523 50.7762 44.5965Z" fill="#8E8E8E"/>
<path d="M55.5417 56.257C55.5212 56.2549 55.5015 56.2478 55.4844 56.2363C55.4673 56.2248 55.4533 56.2093 55.4436 56.1911L54.9577 55.2805C54.9504 55.2667 54.9456 55.2516 54.9438 55.2361C54.7584 53.667 54.274 51.6243 53.6481 49.7717C52.7837 47.2132 51.9245 45.8353 51.5554 45.8381C51.4703 45.8387 51.4127 45.9622 51.3794 46.0657C51.1403 46.8079 51.3707 48.8026 51.9666 51.1473C51.9747 51.1792 51.97 51.213 51.9535 51.2415C51.9369 51.2699 51.9099 51.2908 51.8781 51.2995L51.5963 51.377C51.5802 51.3814 51.5634 51.3825 51.5469 51.3803C51.5303 51.3781 51.5144 51.3727 51.4999 51.3643C51.4855 51.3559 51.4729 51.3447 51.4628 51.3314C51.4527 51.3181 51.4454 51.3029 51.4412 51.2868C50.6624 48.2235 50.3471 45.5193 50.6568 44.5577C50.7845 44.1613 50.9931 44.0768 51.1453 44.0759C52.003 44.0683 53.2027 46.7229 54.0423 49.208C54.8352 51.5548 55.4471 54.1377 55.6796 56.1174C55.6817 56.1361 55.6797 56.155 55.6735 56.1728C55.6674 56.1906 55.6573 56.2068 55.6441 56.2202C55.6309 56.2336 55.6148 56.2439 55.5971 56.2502C55.5794 56.2566 55.5604 56.2589 55.5417 56.257ZM55.1907 55.1831L55.3372 55.4575C55.0593 53.6055 54.5022 51.3554 53.8038 49.2884C52.7021 46.0269 51.6366 44.3223 51.147 44.3272C51.0212 44.3281 50.941 44.495 50.8961 44.635C50.6082 45.5283 50.9196 48.1755 51.6534 51.1007L51.6928 51.0898C51.1087 48.7536 50.8918 46.7595 51.14 45.9887C51.2465 45.6582 51.4237 45.5878 51.5536 45.5868C52.2489 45.5847 53.2147 47.7038 53.8864 49.6914C54.5143 51.5502 55.0013 53.6008 55.1907 55.1831Z" fill="#8E8E8E"/>
<path d="M68.617 46.296L66.4013 46.9168C65.8001 44.5504 65.571 42.5278 65.8164 41.7656C65.8741 41.5868 65.9545 41.4866 66.0535 41.4588L68.2692 40.838C68.1702 40.8658 68.0898 40.966 68.0321 41.1448C67.7867 41.9069 68.016 43.9295 68.617 46.296Z" fill="#B8B8B8"/>
<path d="M66.3884 47.0418C66.3627 47.0393 66.3385 47.0289 66.319 47.012C66.2995 46.9952 66.2856 46.9727 66.2794 46.9477C65.6729 44.5601 65.4442 42.5109 65.6966 41.7272C65.7669 41.5093 65.8755 41.3783 66.0195 41.338L68.235 40.7171C68.2669 40.7089 68.3007 40.7135 68.3292 40.7299C68.3577 40.7463 68.3787 40.7732 68.3876 40.8048C68.3965 40.8365 68.3926 40.8704 68.3768 40.8993C68.361 40.9281 68.3345 40.9496 68.303 40.9591L68.3029 40.9591C68.2468 40.975 68.1931 41.0546 68.1516 41.1833C67.9125 41.9254 68.1429 43.92 68.7389 46.265C68.747 46.2968 68.7423 46.3305 68.7258 46.3589C68.7094 46.3873 68.6825 46.4081 68.6509 46.417L66.4352 47.0378C66.42 47.0421 66.4041 47.0434 66.3884 47.0418ZM67.9267 41.0645L66.0873 41.5798C66.0312 41.5956 65.9776 41.6752 65.936 41.804C65.7011 42.5328 65.9193 44.47 66.4916 46.7608L68.4652 46.2077C67.881 43.8713 67.6641 41.8768 67.9122 41.1061C67.917 41.092 67.9217 41.0781 67.9267 41.0645Z" fill="#8E8E8E"/>
<path d="M72.3268 51.2494L70.1111 51.8702C69.8793 49.8952 69.2686 47.322 68.4795 44.9865C67.3915 41.7659 66.2351 39.7805 65.6303 39.9498L67.846 39.329C68.4507 39.1595 69.6072 41.1451 70.6952 44.3657C71.4843 46.7012 72.095 49.2744 72.3268 51.2494Z" fill="#8E8E8E"/>
<path d="M70.0983 51.9954C70.0699 51.9924 70.0432 51.9799 70.0229 51.9598C70.0025 51.9398 69.9896 51.9133 69.9862 51.8849C69.7557 49.9217 69.148 47.3579 68.3603 45.0268C67.8347 43.471 67.2828 42.1681 66.7644 41.2593C66.2222 40.3086 65.8406 40.0217 65.6642 40.0709L65.664 40.0709C65.648 40.0759 65.6311 40.0776 65.6143 40.0759C65.5976 40.0743 65.5814 40.0693 65.5666 40.0613C65.5519 40.0532 65.5389 40.0423 65.5284 40.0292C65.5179 40.0161 65.5102 40.001 65.5057 39.9848C65.5011 39.9686 65.4999 39.9517 65.502 39.935C65.5041 39.9183 65.5096 39.9023 65.518 39.8877C65.5265 39.8732 65.5377 39.8605 65.5511 39.8504C65.5646 39.8403 65.5799 39.833 65.5962 39.8289L67.8119 39.2081C68.6691 38.9671 69.9656 41.8141 70.8141 44.3255C71.607 46.6722 72.219 49.2551 72.4514 51.2349C72.4549 51.2646 72.4476 51.2946 72.4309 51.3195C72.4143 51.3443 72.3893 51.3624 72.3604 51.3705L70.1447 51.9913C70.1297 51.9956 70.1139 51.997 70.0983 51.9954ZM66.0687 39.9579C66.8833 40.5481 67.8948 42.8629 68.5987 44.9465C69.3722 47.2358 69.9736 49.7503 70.2183 51.7098L72.1892 51.1576C71.9495 49.2086 71.3495 46.6951 70.5762 44.406C70.0505 42.85 69.4985 41.5473 68.9801 40.6384C68.4374 39.687 68.0564 39.4007 67.8798 39.4501L66.0687 39.9579Z" fill="#8E8E8E"/>
<path d="M65.3331 40.3346C65.7575 39.0172 67.1683 41.1046 68.4798 44.9863C69.2689 47.3218 69.8796 49.8951 70.1113 51.8701L69.6255 50.9595C69.4391 49.3826 68.9526 47.3304 68.3241 45.4698C67.2794 42.3774 66.1547 40.7158 65.8166 41.7654C65.5711 42.5275 65.8003 44.5501 66.4015 46.9166L66.1198 46.9941C65.3632 44.0188 65.0252 41.2905 65.3331 40.3346Z" fill="#8E8E8E"/>
<path d="M70.0983 51.9952C70.0778 51.9931 70.0581 51.9859 70.041 51.9745C70.0239 51.963 70.0099 51.9474 70.0002 51.9292L69.5143 51.0187C69.507 51.0048 69.5023 50.9898 69.5004 50.9743C69.315 49.4056 68.8308 47.3629 68.2047 45.51C67.3405 42.9515 66.4871 41.5764 66.1121 41.5764C66.027 41.577 65.9695 41.7005 65.9361 41.804C65.6969 42.5458 65.9273 44.5405 66.5232 46.8856C66.5313 46.9175 66.5266 46.9513 66.51 46.9798C66.4935 47.0082 66.4665 47.029 66.4347 47.0378L66.1531 47.1153C66.1206 47.1242 66.0858 47.1196 66.0566 47.1027C66.0421 47.0944 66.0295 47.0832 66.0194 47.0698C66.0094 47.0565 66.0021 47.0413 65.998 47.0251C65.2191 43.9617 64.9038 41.2576 65.2134 40.296C65.3411 39.8996 65.5497 39.8151 65.7019 39.8141C66.5589 39.8064 67.7593 42.4612 68.5989 44.9463C69.3918 47.293 70.0038 49.8759 70.2362 51.8556C70.2383 51.8743 70.2362 51.8933 70.2301 51.911C70.2239 51.9288 70.2139 51.945 70.2006 51.9584C70.1874 51.9718 70.1713 51.982 70.1536 51.9884C70.1359 51.9947 70.117 51.9971 70.0983 51.9952ZM69.7473 50.9212L69.8938 51.1957C69.616 49.3435 69.0588 47.0935 68.3605 45.0266C67.2587 41.7651 66.1931 40.0614 65.7036 40.0654C65.5778 40.0663 65.4976 40.2332 65.4527 40.3731C65.1648 41.2664 65.4763 43.9135 66.2101 46.8387L66.2494 46.828C65.6653 44.4917 65.4484 42.4975 65.6967 41.7268C65.8032 41.3963 65.9805 41.3259 66.1103 41.325C66.8021 41.3234 67.7715 43.442 68.443 45.4295C69.0711 47.2889 69.5581 49.3395 69.7473 50.9212Z" fill="#8E8E8E"/>
</g>
<g clip-path="url(#clip2_3359_26907)">
<path d="M126.259 92.7918L107.701 134.542L148.399 147.892L166.958 106.142L126.259 92.7918Z" fill="#8E8E8E"/>
<path d="M148.375 148.016C148.403 148.021 148.432 148.017 148.458 148.004C148.483 147.991 148.503 147.969 148.514 147.943L167.073 106.193C167.08 106.177 167.083 106.16 167.083 106.142C167.083 106.124 167.08 106.107 167.073 106.091C167.066 106.075 167.055 106.061 167.042 106.049C167.029 106.037 167.014 106.028 166.997 106.022L126.298 92.6723C126.269 92.6626 126.236 92.6642 126.208 92.6768C126.18 92.6894 126.157 92.7122 126.144 92.7406L107.586 134.491C107.579 134.507 107.575 134.524 107.575 134.542C107.575 134.56 107.579 134.577 107.586 134.593C107.593 134.609 107.603 134.623 107.616 134.635C107.629 134.647 107.645 134.656 107.661 134.661L148.36 148.012C148.365 148.013 148.37 148.015 148.375 148.016ZM166.786 106.218L148.331 147.737L107.872 134.466L126.328 92.9465L166.786 106.218Z" fill="#8E8E8E"/>
<path d="M107.701 134.542L109.898 137.129L150.597 150.479L148.4 147.892L107.701 134.542Z" fill="#B8B8B8"/>
<path d="M150.573 150.602C150.598 150.607 150.625 150.604 150.648 150.593C150.672 150.582 150.692 150.565 150.705 150.542C150.718 150.52 150.724 150.494 150.722 150.468C150.719 150.442 150.709 150.417 150.692 150.397L148.495 147.811C148.48 147.793 148.461 147.78 148.439 147.773L107.74 134.423C107.714 134.414 107.686 134.414 107.66 134.423C107.634 134.432 107.612 134.449 107.596 134.472C107.581 134.495 107.574 134.522 107.575 134.549C107.577 134.576 107.587 134.603 107.605 134.623L109.802 137.21C109.817 137.228 109.836 137.241 109.859 137.248L150.557 150.598C150.562 150.6 150.567 150.601 150.573 150.602ZM148.327 148.001L150.212 150.221L109.971 137.02L108.085 134.8L148.327 148.001Z" fill="#8E8E8E"/>
<path d="M148.4 147.892L150.597 150.479L169.155 108.729L166.958 106.142L148.4 147.892Z" fill="#8E8E8E"/>
<path d="M150.572 150.602C150.6 150.608 150.629 150.604 150.655 150.59C150.68 150.577 150.7 150.556 150.712 150.53L169.27 108.78C169.279 108.758 169.283 108.734 169.279 108.711C169.276 108.687 169.266 108.665 169.251 108.647L167.054 106.061C167.04 106.045 167.022 106.032 167.002 106.025C166.982 106.017 166.961 106.015 166.94 106.018C166.919 106.021 166.899 106.029 166.882 106.042C166.865 106.055 166.851 106.072 166.843 106.091L148.284 147.841C148.275 147.863 148.272 147.887 148.275 147.91C148.278 147.934 148.288 147.956 148.304 147.974L150.501 150.56C150.519 150.582 150.545 150.597 150.572 150.602ZM169.008 108.75L150.563 150.245L148.547 147.871L166.991 106.376L169.008 108.75Z" fill="#8E8E8E"/>
<path d="M166.958 106.142L126.259 92.7918C116.713 113.707 112.358 123.248 106.655 132.542L147.354 145.892C153.057 136.598 157.412 127.057 166.958 106.142Z" fill="#3C3C3C"/>
<path d="M147.33 146.015C147.355 146.02 147.381 146.017 147.405 146.007C147.428 145.997 147.448 145.979 147.461 145.958C153.169 136.657 157.526 127.11 167.072 106.194C167.079 106.178 167.083 106.161 167.083 106.143C167.084 106.125 167.08 106.108 167.073 106.092C167.066 106.075 167.055 106.061 167.042 106.049C167.029 106.037 167.014 106.028 166.997 106.023L126.298 92.6724C126.269 92.663 126.237 92.6647 126.209 92.6771C126.18 92.6894 126.158 92.7117 126.145 92.7397C116.603 113.647 112.247 123.189 106.548 132.476C106.538 132.492 106.532 132.51 106.53 132.529C106.528 132.548 106.531 132.567 106.537 132.585C106.544 132.603 106.554 132.619 106.568 132.632C106.582 132.645 106.598 132.655 106.616 132.661L147.315 146.011C147.32 146.013 147.325 146.014 147.33 146.015ZM166.785 106.218C157.312 126.973 152.962 136.499 147.299 145.742L106.846 132.472C112.503 123.229 116.86 113.689 126.327 92.9462L166.785 106.218Z" fill="#8E8E8E"/>
</g>
<g clip-path="url(#clip3_3359_26907)">
<path d="M162.004 94.0679L122.795 77.2422C110.993 96.431 105.604 105.192 97.5558 110.412L136.765 127.238C144.813 122.018 150.202 113.257 162.004 94.0679Z" fill="#3C3C3C"/>
<path d="M136.749 127.363C136.778 127.366 136.808 127.36 136.833 127.343C144.906 122.108 150.298 113.341 162.111 94.1339C162.121 94.1185 162.127 94.1013 162.129 94.0834C162.131 94.0654 162.13 94.0472 162.124 94.03C162.119 94.0128 162.11 93.997 162.097 93.9836C162.085 93.9702 162.07 93.9596 162.054 93.9524L122.845 77.1266C122.788 77.1024 122.721 77.1232 122.688 77.1762C110.894 96.3516 105.512 105.102 97.4873 110.307C97.4682 110.319 97.4528 110.336 97.4428 110.357C97.4327 110.377 97.4285 110.4 97.4304 110.423C97.4324 110.445 97.4404 110.467 97.4538 110.486C97.4671 110.504 97.4852 110.519 97.5062 110.528L136.715 127.353C136.726 127.358 136.737 127.361 136.749 127.363ZM161.821 94.1261C150.107 113.171 144.729 121.898 136.753 127.096L97.8211 110.389C105.772 105.147 111.167 96.3876 122.845 77.4004L161.821 94.1261Z" fill="#8E8E8E"/>
<path d="M141.871 106.735C141.903 106.739 141.936 106.731 141.962 106.711C141.988 106.692 142.006 106.663 142.011 106.631C142.016 106.599 142.009 106.566 141.991 106.539C141.972 106.513 141.944 106.494 141.912 106.487C141.046 106.307 139.354 105.574 138.51 103.971C138.337 103.641 138.205 103.29 138.119 102.928C138.725 102.702 139.315 102.436 139.886 102.132C141.652 101.189 143.921 99.4944 144.699 96.7744C145.299 94.6753 145.061 93.2124 144.061 92.8614C142.659 92.3684 140.201 94.2558 138.52 98.268C137.809 99.9665 137.577 101.474 137.827 102.767C137.298 102.956 136.765 103.112 136.249 103.227C135.231 103.455 134.356 103.505 133.911 103.362C131.978 102.739 131.827 101.613 131.496 99.1463C131.473 98.9703 131.448 98.7879 131.422 98.599C131.343 98.0293 131.137 97.6579 130.791 97.4637C130.052 97.0492 128.858 97.569 127.594 98.1198C126.573 98.5647 125.517 99.0247 124.732 98.9626C123.466 98.8638 123.103 98.3607 122.553 97.601C122.483 97.5053 122.411 97.4061 122.335 97.3037C122.315 97.2772 122.285 97.2598 122.252 97.2552C122.219 97.2506 122.186 97.2592 122.159 97.2791C122.133 97.299 122.115 97.3287 122.11 97.3615C122.105 97.3944 122.114 97.4279 122.133 97.4546C122.209 97.5558 122.28 97.6541 122.349 97.7486C122.919 98.5358 123.331 99.1028 124.712 99.2134C125.56 99.2805 126.645 98.8078 127.694 98.3505C128.847 97.8487 130.038 97.3301 130.668 97.683C130.941 97.8362 131.106 98.1471 131.173 98.6333C131.198 98.8154 131.223 98.9976 131.247 99.1798C131.571 101.598 131.75 102.93 133.834 103.601C134.554 103.833 136.149 103.628 137.881 103.014C137.972 103.388 138.108 103.748 138.287 104.088C139.174 105.774 140.951 106.544 141.861 106.734L141.871 106.735ZM143.747 93.0449C143.828 93.0551 143.905 93.073 143.978 93.0987C144.3 93.2118 145.286 93.8061 144.457 96.7052C143.703 99.3406 141.491 100.991 139.768 101.91C139.218 102.203 138.65 102.46 138.067 102.679C137.839 101.443 138.068 99.9986 138.753 98.3653C140.261 94.7631 142.441 92.8796 143.747 93.0449ZM137.161 115.466C137.329 115.488 137.512 115.485 137.713 115.459C137.73 115.457 137.745 115.451 137.76 115.443C137.774 115.435 137.787 115.424 137.797 115.411C137.807 115.397 137.814 115.382 137.818 115.366C137.823 115.351 137.824 115.334 137.821 115.318C137.817 115.285 137.799 115.255 137.773 115.234C137.747 115.214 137.713 115.205 137.68 115.209C136.451 115.372 136.003 114.486 135.022 112.542L134.958 112.414C134.061 110.638 132.661 111.15 131.426 111.601C130.645 111.886 129.908 112.156 129.278 111.943C128.508 111.684 127.775 110.994 127.067 110.327C126.182 109.494 125.347 108.707 124.497 108.821C123.927 108.897 123.298 109.22 122.782 109.652C121.644 107.794 119.825 105.607 118.829 105.42C117.812 105.228 117.147 105.496 116.558 105.732C115.829 106.025 115.302 106.237 114.386 105.426C114.373 105.415 114.359 105.406 114.343 105.401C114.328 105.396 114.311 105.393 114.295 105.394C114.278 105.395 114.262 105.4 114.247 105.407C114.232 105.414 114.219 105.424 114.208 105.437C114.197 105.449 114.189 105.463 114.183 105.479C114.178 105.495 114.176 105.511 114.177 105.528C114.178 105.544 114.182 105.56 114.189 105.575C114.196 105.59 114.207 105.603 114.219 105.614C115.252 106.528 115.9 106.268 116.652 105.966C117.208 105.742 117.84 105.488 118.782 105.667C119.555 105.813 121.437 107.88 122.606 109.807C122.231 110.159 121.935 110.565 121.797 110.965C121.609 111.512 121.712 112.008 122.096 112.4C122.478 112.791 122.968 112.897 123.344 112.671C123.715 112.447 123.853 111.982 123.695 111.488C123.557 111.056 123.278 110.487 122.914 109.872C123.4 109.457 124 109.141 124.53 109.07C125.261 108.972 126.055 109.72 126.894 110.51C127.623 111.196 128.376 111.905 129.198 112.182C129.911 112.422 130.725 112.125 131.512 111.838C132.759 111.382 133.937 110.952 134.733 112.528L134.798 112.655C135.659 114.361 136.152 115.339 137.161 115.466ZM122.739 110.03C123.055 110.575 123.308 111.102 123.456 111.564C123.577 111.944 123.482 112.294 123.214 112.455C122.997 112.586 122.637 112.593 122.276 112.224C121.959 111.9 121.878 111.504 122.035 111.047C122.154 110.701 122.411 110.344 122.739 110.03Z" fill="#8E8E8E"/>
</g>
<g clip-path="url(#clip4_3359_26907)">
<path d="M12.3333 98.7385C12.9874 96.7867 14.9794 95.2472 17.0566 96.1633C16.7899 96.0338 16.4065 96.0708 15.9337 96.3056C14.7048 96.916 13.3371 98.6325 12.8789 100.14C12.6431 100.915 12.6941 101.484 12.9668 101.771C12.4479 101.217 11.9219 100.226 12.3333 98.7385Z" fill="#B8B8B8"/>
<path d="M12.979 101.862C12.9957 101.859 13.0115 101.853 13.0246 101.842C13.0378 101.831 13.0477 101.817 13.0534 101.801C13.0591 101.785 13.0603 101.768 13.0569 101.752C13.0534 101.735 13.0455 101.72 13.034 101.708L13.0258 101.699C12.7753 101.425 12.7536 100.868 12.967 100.166C13.418 98.6825 14.7673 96.9876 15.9746 96.3878C16.3779 96.1876 16.719 96.1315 16.9664 96.2243C16.9841 96.2318 17.0019 96.2394 17.0197 96.2472C17.0306 96.2523 17.0424 96.2551 17.0545 96.2556C17.0665 96.2561 17.0786 96.2542 17.0899 96.25C17.1128 96.2416 17.1313 96.2245 17.1416 96.2024C17.1518 96.1803 17.1528 96.155 17.1444 96.1321C17.136 96.1092 17.1188 96.0906 17.0967 96.0804C17.0766 96.0707 17.0561 96.0618 17.0351 96.0539C16.2121 95.7084 15.3496 95.7152 14.5364 96.0745C13.5022 96.5317 12.6459 97.5165 12.2463 98.709C12.2458 98.7105 12.2453 98.7121 12.2449 98.7137C11.7982 100.328 12.4523 101.351 12.8901 101.823C12.8935 101.826 12.8968 101.83 12.9004 101.834C12.9103 101.844 12.9227 101.852 12.9363 101.857C12.95 101.862 12.9646 101.863 12.979 101.862ZM16.3747 96.0411C16.2237 96.0782 16.0626 96.139 15.893 96.2232C14.6464 96.8424 13.255 98.5872 12.7912 100.113C12.6668 100.522 12.6177 100.884 12.6431 101.182C12.3211 100.624 12.1267 99.8324 12.4214 98.7653C12.8053 97.6219 13.6237 96.679 14.6109 96.2427C15.1838 95.9894 15.7838 95.922 16.3747 96.0411Z" fill="#8E8E8E"/>
<path d="M13.0528 101.845C12.3922 101.362 12.7752 99.7124 13.9083 98.1597C15.0414 96.6069 16.4954 95.7393 17.156 96.2217C17.8165 96.7041 17.4335 98.3539 16.3005 99.9067C15.1674 101.459 13.7134 102.327 13.0528 101.845Z" fill="#3C3C3C"/>
<path d="M13.6635 102.059C13.8616 102.033 14.0809 101.962 14.3154 101.845C15.5618 101.226 16.9532 99.4812 17.4172 97.9556C17.6682 97.1298 17.6074 96.4828 17.2503 96.1803C16.9474 95.9236 16.4652 95.939 15.8929 96.2232C14.6463 96.8424 13.255 98.5872 12.7912 100.113C12.5401 100.938 12.6009 101.585 12.9579 101.888C13.1368 102.04 13.3782 102.096 13.6635 102.059ZM16.569 96.191C16.8013 96.1606 16.9933 96.2035 17.1317 96.3206C17.4301 96.5735 17.4701 97.15 17.2414 97.9022C16.7902 99.386 15.441 101.081 14.2338 101.681C13.7309 101.93 13.3201 101.954 13.0767 101.748C12.7782 101.495 12.7382 100.919 12.967 100.166C13.4181 98.6825 14.7673 96.9876 15.9746 96.3878C16.1919 96.2799 16.3921 96.2142 16.569 96.191Z" fill="#8E8E8E"/>
<path d="M17.2915 95.9527C17.3666 95.9759 17.4374 96.0111 17.5011 96.057C17.4357 96.0139 17.3653 95.9789 17.2915 95.9527Z" fill="#3C3C3C"/>
<path d="M17.513 96.1484C17.5312 96.146 17.5483 96.1383 17.562 96.1261C17.5758 96.1139 17.5856 96.0979 17.5901 96.0801C17.5946 96.0623 17.5937 96.0435 17.5875 96.0262C17.5813 96.0089 17.57 95.9939 17.5551 95.9831C17.4834 95.9313 17.4036 95.8915 17.3191 95.8654C17.2962 95.8582 17.2714 95.8602 17.2499 95.871C17.2285 95.8819 17.2122 95.9007 17.2045 95.9235C17.1967 95.9462 17.1982 95.9711 17.2086 95.9927C17.2189 96.0144 17.2374 96.0311 17.26 96.0393C17.3268 96.0629 17.3906 96.0946 17.4498 96.1336C17.4684 96.1461 17.4908 96.1513 17.513 96.1484Z" fill="#8E8E8E"/>
<path d="M18.0082 96.4275C18.1027 96.5083 18.318 96.6902 18.3964 97.0909C18.5599 97.9268 18.0592 99.5886 16.5736 101.262C15.921 101.997 14.4405 103.222 13.5087 102.597L13.0015 102.227C12.6877 101.997 12.5144 101.466 12.6424 100.776C12.6719 100.62 12.71 100.466 12.7567 100.314C13.2068 98.8331 14.4573 97.1682 15.6818 96.3557C15.8184 96.2644 15.9606 96.1818 16.1075 96.1081C16.6938 95.8169 17.2085 95.8437 17.5008 96.0572L18.0082 96.4275Z" fill="#3C3C3C"/>
<path d="M14.2867 102.845C15.1618 102.73 16.1414 101.888 16.6425 101.323C18.1488 99.6263 18.6543 97.9307 18.4867 97.0733C18.4027 96.6434 18.1693 96.4441 18.0696 96.3591L18.0626 96.3533L17.5554 95.9829C17.2051 95.7272 16.6347 95.7437 16.067 96.0257C15.9167 96.1011 15.7712 96.1857 15.6314 96.2791C14.3656 97.1188 13.1199 98.8043 12.6691 100.287C12.6215 100.442 12.5825 100.6 12.5523 100.759C12.4261 101.44 12.5777 102.03 12.9476 102.301L13.4548 102.671C13.7049 102.839 13.9897 102.884 14.2867 102.845ZM17.9515 96.4997C18.0442 96.5789 18.235 96.743 18.3065 97.1086C18.4657 97.923 17.97 99.551 16.5052 101.201C16.3521 101.374 15.798 101.967 15.1011 102.36C14.4586 102.722 13.9402 102.776 13.5601 102.521L13.0559 102.152C12.7482 101.928 12.6215 101.394 12.733 100.793C12.7619 100.64 12.7993 100.489 12.845 100.341C13.2846 98.8946 14.4992 97.2509 15.733 96.4323C15.8664 96.3432 16.0053 96.2624 16.1487 96.1905C16.7541 95.8899 17.2164 95.963 17.4472 96.1316L17.9515 96.4997Z" fill="#8E8E8E"/>
<path d="M13.5937 100.768C14.0698 99.2025 15.4908 97.4189 16.7677 96.7846C17.272 96.5342 17.6785 96.5004 17.969 96.6545C22.355 99.0463 30.5802 103.992 51.2815 119.262C50.8988 118.979 50.1423 119.364 49.5333 119.869C48.0167 121.129 46.3971 123.143 45.4669 125.206C44.9634 126.322 44.8876 126.981 45.3883 127.342C24.5264 112.259 17.3132 105.93 13.7023 102.48C13.404 102.189 13.3438 101.59 13.5937 100.768Z" fill="#B8B8B8"/>
<path d="M45.4004 127.433C45.4187 127.43 45.4358 127.422 45.4495 127.41C45.4633 127.398 45.473 127.382 45.4775 127.364C45.4821 127.346 45.4811 127.327 45.4748 127.31C45.4686 127.293 45.4573 127.278 45.4424 127.267L45.4423 127.267L45.4415 127.267L45.4424 127.267C45.0113 126.955 45.0433 126.369 45.5509 125.243C46.4168 123.323 47.9653 121.291 49.5922 119.94C50.167 119.463 50.8955 119.091 51.2271 119.336L51.2272 119.336C51.2468 119.351 51.2714 119.357 51.2954 119.353C51.3195 119.35 51.3412 119.336 51.3557 119.317C51.3702 119.297 51.3763 119.273 51.3727 119.249C51.3691 119.225 51.356 119.203 51.3364 119.188L51.3363 119.188C30.6305 103.915 22.4016 98.9669 18.0132 96.5736C17.6877 96.4011 17.2434 96.4456 16.7272 96.7022C15.4326 97.3451 13.9877 99.1571 13.5061 100.741C13.2528 101.574 13.2998 102.215 13.6382 102.546C17.2515 105.997 24.4672 112.33 45.3311 127.413L45.3348 127.416C45.3538 127.43 45.3772 127.436 45.4004 127.433ZM50.8311 119.084C50.4082 119.139 49.8948 119.45 49.4748 119.798C47.8278 121.166 46.2601 123.223 45.3833 125.168C45.0906 125.817 44.8602 126.464 44.9999 126.947C24.4813 112.097 17.3491 105.837 13.7658 102.414C13.4837 102.138 13.4528 101.548 13.6818 100.795C14.1507 99.2523 15.5535 97.4902 16.8087 96.8667C17.2701 96.6376 17.6564 96.5923 17.9262 96.7354C22.2844 99.1122 30.4366 104.013 50.878 119.079C50.8625 119.08 50.8468 119.082 50.8311 119.084Z" fill="#8E8E8E"/>
<path d="M53.6878 119.891C53.8801 120.042 54.2932 120.4 54.4394 121.149C55.0956 124.511 49.5972 131.371 46.7209 129.443L45.4364 128.505C44.9506 128.15 44.7654 127.391 44.9635 126.322C45.0091 126.08 45.0682 125.841 45.1405 125.606C45.8376 123.314 47.7737 120.736 49.6699 119.478C49.8908 119.331 50.1112 119.203 50.329 119.094C51.2369 118.643 51.9507 118.622 52.4033 118.953C52.4032 118.953 53.3753 119.645 53.6878 119.891Z" fill="#3C3C3C"/>
<path d="M48.1934 129.851C48.7604 129.776 49.3819 129.518 50.0427 129.079C51.2552 128.273 52.5087 126.882 53.3959 125.36C54.3285 123.759 54.7418 122.218 54.5297 121.132C54.3694 120.31 53.8992 119.94 53.7447 119.819C53.4341 119.574 52.4965 118.906 52.4567 118.878C51.9543 118.511 51.204 118.557 50.2883 119.012C50.0706 119.12 49.8456 119.251 49.6193 119.401C47.6682 120.696 45.7478 123.294 45.0528 125.58C44.9763 125.831 44.916 126.075 44.8735 126.305C44.6731 127.386 44.8539 128.194 45.3824 128.58L46.667 129.518C47.1107 129.815 47.6245 129.925 48.1934 129.851ZM53.6312 119.963C53.7724 120.074 54.2021 120.412 54.3494 121.167C54.7988 123.468 52.301 127.357 49.941 128.926C48.353 129.982 47.3415 129.748 46.7723 129.367L45.4907 128.431C45.0224 128.089 44.8673 127.346 45.054 126.338C45.099 126.1 45.1573 125.865 45.2285 125.633C45.9123 123.384 47.8017 120.827 49.7208 119.554C49.9407 119.408 50.1591 119.281 50.3699 119.176C51.2085 118.76 51.9112 118.707 52.3493 119.027C52.3598 119.035 53.3239 119.721 53.6312 119.963Z" fill="#8E8E8E"/>
<path d="M47.6123 126.677C48.2674 124.523 50.2227 122.069 51.9797 121.196C52.7486 120.814 53.352 120.798 53.7331 121.082C67.008 131.001 78.4411 139.988 85.9263 146.389C85.6593 146.159 85.2178 146.159 84.6482 146.442C83.4029 147.06 82.0171 148.799 81.5527 150.326C81.28 151.224 81.3859 151.848 81.7706 152.084C73.3927 146.901 61.3526 138.746 47.8683 129.123C47.3676 128.764 47.2404 127.901 47.6123 126.677Z" fill="#B8B8B8"/>
<path d="M81.7825 152.175C81.8013 152.172 81.8189 152.164 81.8329 152.151C81.8469 152.138 81.8565 152.122 81.8605 152.103C81.8645 152.084 81.8626 152.065 81.8552 152.048C81.8477 152.03 81.835 152.015 81.8188 152.005L81.8144 152.003C81.4591 151.78 81.3939 151.164 81.6406 150.353C82.0977 148.849 83.4653 147.131 84.6889 146.524C85.1987 146.27 85.6153 146.246 85.8623 146.455L85.8665 146.459C85.885 146.475 85.909 146.483 85.9333 146.481C85.9576 146.479 85.9801 146.467 85.996 146.449C86.0119 146.43 86.0197 146.406 86.0179 146.382C86.016 146.358 86.0046 146.335 85.9861 146.319L85.9858 146.319L85.9819 146.316C78.496 139.915 67.0627 130.927 53.7878 121.009C53.3653 120.694 52.7087 120.731 51.9386 121.114C50.1649 121.995 48.1846 124.478 47.5243 126.65C47.1532 127.871 47.2591 128.799 47.8149 129.197C61.2986 138.82 73.3379 146.974 81.7171 152.158L81.7226 152.162C81.7405 152.173 81.7616 152.178 81.7825 152.175ZM85.2676 146.142C85.0671 146.169 84.845 146.241 84.6073 146.359C83.3444 146.986 81.9347 148.754 81.4648 150.3C81.2837 150.895 81.2608 151.391 81.3892 151.739C73.0339 146.546 61.1758 138.507 47.9216 129.048C47.434 128.699 47.3532 127.845 47.7001 126.704C48.3476 124.574 50.2858 122.14 52.0202 121.278C52.7252 120.928 53.3138 120.885 53.678 121.156C66.7279 130.906 77.9968 139.756 85.4838 146.132C85.4116 146.129 85.3392 146.133 85.2676 146.142Z" fill="#8E8E8E"/>
<path d="M81.7275 152.055C81.0581 151.566 81.4462 149.894 82.5944 148.321C83.7425 146.748 85.2159 145.869 85.8852 146.357C86.5546 146.846 86.1664 148.518 85.0183 150.091C83.8702 151.665 82.3968 152.544 81.7275 152.055Z" fill="#3C3C3C"/>
<path d="M82.3475 152.27C82.5481 152.244 82.7702 152.172 83.0077 152.054C84.2705 151.427 85.6802 149.659 86.1502 148.113C86.4044 147.277 86.3429 146.622 85.9816 146.316C85.675 146.056 85.1868 146.071 84.6075 146.359C83.3448 146.986 81.935 148.754 81.465 150.3C81.2107 151.136 81.2723 151.791 81.6336 152.097C81.8146 152.251 82.0587 152.308 82.3475 152.27ZM85.2916 146.324C85.5274 146.293 85.7224 146.337 85.8628 146.456C86.1656 146.712 86.2063 147.297 85.9743 148.06C85.5171 149.564 84.1496 151.281 82.926 151.889C82.4161 152.142 81.9994 152.166 81.7522 151.957C81.4493 151.701 81.4086 151.116 81.6406 150.353C82.0977 148.849 83.4653 147.132 84.689 146.524C84.9094 146.414 85.1123 146.348 85.2916 146.324Z" fill="#8E8E8E"/>
<path d="M81.5083 150.483C81.5222 150.43 81.537 150.378 81.5528 150.327C81.9388 149.057 82.9619 147.64 84.0115 146.844C84.2243 146.682 84.4383 146.546 84.6482 146.442C85.3146 146.111 85.8057 146.168 86.0471 146.526L90.5229 153.013C90.4677 152.931 90.2126 152.904 89.9991 153.082C89.7672 153.274 89.4948 153.681 89.3674 153.974C89.3073 154.112 89.3483 154.407 89.4606 154.44L81.9387 152.158C81.4474 152.015 81.2636 151.41 81.5083 150.483Z" fill="#8E8E8E"/>
<path d="M89.4725 154.531C89.4934 154.528 89.5126 154.519 89.5271 154.503C89.5416 154.488 89.5505 154.468 89.5522 154.448C89.5539 154.427 89.5484 154.406 89.5366 154.388C89.5248 154.371 89.5074 154.358 89.4873 154.352L89.4863 154.352C89.4451 154.326 89.4069 154.114 89.4517 154.011C89.5679 153.743 89.8326 153.339 90.0578 153.152C90.2369 153.004 90.4215 153.039 90.4473 153.065C90.4613 153.085 90.4823 153.098 90.506 153.102C90.5296 153.106 90.5539 153.101 90.5738 153.088C90.5936 153.074 90.6074 153.053 90.6121 153.03C90.6169 153.006 90.6122 152.982 90.5991 152.962L90.5972 152.959L86.1226 146.474C85.8447 146.061 85.2921 146.019 84.6074 146.359C84.3963 146.464 84.1772 146.603 83.956 146.771C82.8706 147.595 81.8463 149.046 81.4649 150.3C81.4488 150.353 81.4337 150.406 81.4195 150.459C81.1672 151.415 81.3518 152.083 81.9132 152.246L89.432 154.527C89.4451 154.532 89.4589 154.533 89.4725 154.531ZM90.2725 152.862C90.1567 152.877 90.0394 152.929 89.9405 153.011C89.6913 153.218 89.4106 153.644 89.2833 153.938C89.2441 154.028 89.2381 154.165 89.2631 154.284L81.9656 152.07C81.5109 151.938 81.3737 151.353 81.5972 150.506C81.6109 150.455 81.6254 150.404 81.6409 150.353C82.0119 149.133 83.0097 147.72 84.0672 146.917C84.2793 146.756 84.4886 146.624 84.6892 146.524C85.2825 146.229 85.7497 146.249 85.971 146.578L90.305 152.859C90.2941 152.86 90.2833 152.861 90.2725 152.862Z" fill="#8E8E8E"/>
<path d="M89.4111 154.416C89.24 154.291 89.3392 153.863 89.6328 153.461C89.9263 153.059 90.3031 152.834 90.4743 152.959C90.6454 153.084 90.5462 153.511 90.2526 153.914C89.959 154.316 89.5823 154.541 89.4111 154.416Z" fill="#8E8E8E"/>
<path d="M89.5798 154.539C89.6339 154.532 89.697 154.513 89.7699 154.477C90.113 154.307 90.4813 153.846 90.6083 153.428C90.6827 153.183 90.66 152.995 90.544 152.896C90.4858 152.847 90.3529 152.782 90.1181 152.898C89.7749 153.069 89.4066 153.53 89.2795 153.947C89.2052 154.192 89.228 154.381 89.3439 154.479C89.384 154.513 89.4597 154.555 89.5798 154.539ZM90.3324 153.019C90.3726 153.013 90.4048 153.019 90.4254 153.037C90.4658 153.071 90.492 153.18 90.4327 153.375C90.3206 153.744 89.9865 154.164 89.6883 154.312C89.5869 154.363 89.5026 154.373 89.4627 154.339C89.4222 154.305 89.3961 154.196 89.4554 154.001C89.5674 153.632 89.9015 153.211 90.1998 153.063C90.249 153.039 90.2943 153.024 90.3324 153.019Z" fill="#8E8E8E"/>
<path d="M89.4125 153.897C89.4146 153.89 89.4168 153.882 89.419 153.875C89.4976 153.616 89.7041 153.328 89.9176 153.163C89.9611 153.129 90.0079 153.099 90.0573 153.074C90.1973 153.004 90.2997 153.018 90.3485 153.095C90.3485 153.095 90.7915 153.797 90.9854 154.11C91.1186 154.325 90.9005 154.627 90.6155 154.538C90.6159 154.538 90.6162 154.539 90.6166 154.539L89.5036 154.254C89.3969 154.226 89.3573 154.097 89.4125 153.897Z" fill="#3C3C3C"/>
<path d="M90.7703 154.643C90.8727 154.629 90.966 154.576 91.0333 154.49C91.1331 154.361 91.1448 154.193 91.0632 154.061C90.8518 153.722 90.6394 153.384 90.426 153.046C90.3972 153 90.2815 152.86 90.0164 152.992C89.966 153.017 89.9138 153.05 89.8614 153.091C89.6268 153.272 89.4137 153.577 89.3312 153.848L89.3241 153.873C89.2827 154.023 89.2871 154.147 89.3371 154.234C89.3524 154.261 89.373 154.284 89.3977 154.303C89.4224 154.322 89.4507 154.335 89.4808 154.343L90.5936 154.628L90.5956 154.628L90.5975 154.629C90.6536 154.645 90.7124 154.65 90.7703 154.643ZM90.1998 153.122C90.2292 153.118 90.2566 153.122 90.2705 153.144C90.2707 153.145 90.7134 153.846 90.9071 154.158C90.9565 154.238 90.9277 154.326 90.888 154.377C90.8294 154.453 90.7376 154.48 90.6427 154.45C90.6385 154.449 90.6342 154.448 90.6298 154.447L89.5261 154.165C89.5196 154.163 89.5135 154.16 89.5083 154.156C89.5031 154.152 89.4987 154.147 89.4957 154.141C89.4869 154.126 89.4612 154.065 89.5008 153.922L89.5009 153.921L89.5066 153.902C89.5779 153.667 89.7699 153.393 89.9736 153.236C90.0122 153.205 90.0539 153.178 90.0978 153.156C90.1165 153.147 90.1599 153.127 90.1998 153.122Z" fill="#8E8E8E"/>
<path d="M12.7909 100.346C12.8008 100.314 12.826 100.285 12.8667 100.265L14.0488 99.6819C13.7542 100.266 13.4632 101.031 13.3719 101.907L12.1897 102.49C12.149 102.511 12.1239 102.539 12.114 102.572L12.7909 100.346Z" fill="#8E8E8E"/>
<path d="M12.1258 102.663C12.1605 102.658 12.191 102.634 12.2018 102.599C12.2044 102.59 12.2149 102.581 12.2305 102.573L13.4126 101.99C13.4265 101.983 13.4384 101.972 13.4473 101.96C13.4561 101.947 13.4616 101.932 13.4632 101.917C13.5391 101.189 13.7636 100.451 14.1308 99.7232C14.1395 99.706 14.1425 99.6865 14.1395 99.6675C14.1365 99.6485 14.1276 99.6309 14.114 99.6172C14.1005 99.6035 14.083 99.5945 14.064 99.5913C14.045 99.5881 14.0254 99.591 14.0082 99.5995L12.8261 100.183C12.747 100.222 12.7156 100.279 12.7031 100.32L12.0262 102.545L12.0261 102.545C12.0216 102.56 12.0209 102.575 12.024 102.59C12.0272 102.605 12.034 102.619 12.0439 102.631C12.0538 102.643 12.0665 102.652 12.0808 102.657C12.0951 102.663 12.1106 102.665 12.1258 102.663ZM13.2861 101.847L12.2793 102.344L12.879 100.373C12.8816 100.365 12.8919 100.355 12.9075 100.348L13.8503 99.8823C13.5494 100.535 13.36 101.195 13.2861 101.847Z" fill="#8E8E8E"/>
<path d="M36.0678 118.284L35.3908 120.509C35.5342 120.439 35.6222 120.339 35.6567 120.226L36.3337 118C36.2993 118.114 36.2113 118.213 36.0678 118.284Z" fill="#3C3C3C"/>
<path d="M35.4027 120.6C35.4124 120.599 35.4222 120.596 35.4314 120.592C35.5931 120.512 35.7014 120.395 35.7445 120.252L36.4212 118.028L36.4216 118.027C36.4287 118.004 36.4262 117.979 36.4147 117.957C36.4033 117.936 36.3837 117.92 36.3604 117.913C36.3371 117.906 36.312 117.908 36.2905 117.919C36.269 117.931 36.2529 117.95 36.2458 117.974L36.2458 117.974C36.2176 118.066 36.142 118.145 36.0271 118.202C36.0158 118.207 36.0058 118.215 35.9977 118.225C35.9895 118.234 35.9835 118.245 35.9798 118.257L35.3028 120.483C35.2983 120.497 35.2976 120.513 35.3008 120.528C35.3039 120.543 35.3107 120.557 35.3207 120.569C35.3306 120.58 35.3433 120.59 35.3576 120.595C35.372 120.601 35.3875 120.602 35.4027 120.6Z" fill="#8E8E8E"/>
<path d="M11.6591 99.8438C11.3721 99.9855 11.3938 100.293 11.7077 100.533L35.2601 118.535C35.5688 118.771 36.071 118.862 36.3556 118.721C36.6061 118.598 36.2798 118.504 36.068 118.284C36.4693 118.086 36.437 117.664 36.0113 117.338L33.9173 115.738C33.4943 115.414 32.8397 115.306 32.4476 115.492L12.8836 100.538C12.7613 100.445 12.7526 100.322 12.8669 100.265L14.049 99.6819L13.2401 99.0636L12.1747 99.5894L11.9048 99.7226L11.6591 99.8438Z" fill="#3C3C3C"/>
<path d="M36.1609 118.871C36.2471 118.86 36.327 118.838 36.3962 118.804C36.4292 118.787 36.5293 118.738 36.5375 118.641C36.5461 118.538 36.4538 118.471 36.3369 118.387C36.2996 118.36 36.2595 118.331 36.2205 118.299C36.3493 118.205 36.426 118.078 36.4401 117.934C36.4622 117.707 36.3262 117.463 36.0669 117.265L33.9729 115.665C33.5388 115.333 32.888 115.216 32.4603 115.387L12.9393 100.465C12.8944 100.431 12.8763 100.396 12.8781 100.377C12.8794 100.364 12.8948 100.354 12.9074 100.348L14.0895 99.7643C14.1035 99.7574 14.1156 99.747 14.1244 99.7342C14.1333 99.7213 14.1388 99.7064 14.1403 99.6908C14.1418 99.6752 14.1393 99.6596 14.133 99.6452C14.1268 99.6309 14.117 99.6184 14.1045 99.6089L13.2957 98.9906C13.2679 98.9693 13.2305 98.9659 13.1994 98.9812L11.6184 99.7614C11.47 99.8346 11.3808 99.9521 11.3671 100.092C11.3501 100.267 11.4539 100.454 11.6519 100.606L35.2043 118.608C35.472 118.813 35.856 118.911 36.1609 118.871ZM36.3422 118.624C36.3357 118.628 36.3267 118.633 36.315 118.639C36.0667 118.761 35.5996 118.679 35.3159 118.462L11.7634 100.46C11.6192 100.349 11.5394 100.219 11.55 100.11C11.5592 100.015 11.6365 99.9574 11.6996 99.9262L13.2295 99.1713L13.8754 99.6651L12.8261 100.183C12.7502 100.22 12.7025 100.285 12.6953 100.36C12.6866 100.449 12.7349 100.54 12.8277 100.611L32.3919 115.565C32.4193 115.586 32.4562 115.59 32.4871 115.575C32.8492 115.403 33.4659 115.508 33.8616 115.811L35.9556 117.411C36.1632 117.57 36.2732 117.754 36.2574 117.916C36.246 118.034 36.1664 118.133 36.0273 118.202C36.0144 118.208 36.0031 118.217 35.9944 118.229C35.9857 118.241 35.9799 118.254 35.9774 118.268C35.9749 118.282 35.9758 118.297 35.9801 118.311C35.9843 118.325 35.9917 118.337 36.0017 118.348C36.0751 118.424 36.1605 118.486 36.2292 118.535C36.2677 118.563 36.3173 118.599 36.3422 118.624Z" fill="#8E8E8E"/>
<path d="M10.7924 102.272L11.4695 100.047C11.4243 100.195 11.5053 100.378 11.7078 100.533L35.2601 118.536C35.5688 118.771 36.071 118.862 36.3556 118.721C36.4091 118.695 36.4363 118.67 36.4439 118.645L35.7669 120.87C35.7593 120.895 35.7321 120.92 35.6787 120.946C35.3941 121.087 34.8918 120.997 34.5831 120.761L11.0307 102.758C10.8282 102.603 10.7473 102.42 10.7924 102.272Z" fill="#8E8E8E"/>
<path d="M35.4836 121.097C35.5699 121.085 35.6498 121.063 35.7191 121.029C35.7672 121.005 35.8336 120.966 35.8546 120.897L36.5317 118.671C36.5386 118.648 36.5361 118.623 36.5249 118.602C36.5136 118.581 36.4944 118.565 36.4714 118.557C36.4484 118.55 36.4235 118.552 36.402 118.563C36.3805 118.574 36.3642 118.593 36.3565 118.616C36.3564 118.614 36.3466 118.623 36.315 118.639C36.0656 118.761 35.5992 118.679 35.3158 118.463L11.7633 100.46C11.6014 100.336 11.5223 100.188 11.5571 100.074L11.5572 100.074C11.5637 100.051 11.5609 100.026 11.5494 100.005C11.5378 99.9836 11.5185 99.9678 11.4955 99.9608C11.4725 99.9538 11.4477 99.9561 11.4264 99.9672C11.4051 99.9783 11.3889 99.9973 11.3815 100.02L11.3812 100.021L10.7043 102.245C10.6458 102.438 10.747 102.657 10.9749 102.831L34.5272 120.834C34.7948 121.038 35.1788 121.137 35.4836 121.097ZM35.6791 120.841C35.6767 120.841 35.6653 120.85 35.6378 120.864C35.3892 120.987 34.9222 120.904 34.6387 120.688L11.0863 102.685C10.9244 102.561 10.8454 102.413 10.8801 102.299L11.4567 100.404C11.5042 100.475 11.5698 100.543 11.6517 100.606L35.2042 118.608C35.5102 118.842 35.9682 118.938 36.2867 118.845L35.6795 120.841C35.6795 120.841 35.6793 120.841 35.6791 120.841Z" fill="#8E8E8E"/>
</g>
<g clip-path="url(#clip5_3359_26907)">
<path d="M91.9133 46.6495L94.539 48.5142L100.99 46.1734L98.3641 44.3087L91.9133 46.6495Z" fill="#B8B8B8"/>
<path d="M94.5596 48.5911L94.5661 48.5891L101.017 46.2483C101.031 46.2433 101.043 46.2347 101.052 46.2234C101.061 46.2121 101.067 46.1985 101.069 46.1842C101.071 46.1698 101.069 46.1551 101.063 46.1418C101.057 46.1285 101.048 46.117 101.036 46.1086L98.4101 44.2439C98.3997 44.2364 98.3875 44.2316 98.3748 44.2298C98.362 44.2281 98.3491 44.2295 98.337 44.234L91.8861 46.5748C91.8725 46.5798 91.8605 46.5884 91.8514 46.5997C91.8423 46.611 91.8364 46.6246 91.8345 46.6389C91.8326 46.6533 91.8346 46.668 91.8404 46.6813C91.8461 46.6946 91.8555 46.7061 91.8673 46.7145L94.493 48.5792C94.5026 48.5859 94.5135 48.5905 94.525 48.5926C94.5365 48.5946 94.5483 48.5941 94.5596 48.5911ZM100.82 46.1504L94.5509 48.4253L92.0829 46.6726L98.352 44.3978L100.82 46.1504Z" fill="#8E8E8E"/>
<path d="M98.3641 44.3087L100.99 46.1733C103.186 47.6074 105.903 48.5428 108.967 48.7797C118.155 49.4902 126.99 43.6586 128.702 35.754C129.801 30.677 127.694 25.9795 123.611 23.0802L120.985 21.2155C125.068 24.1148 127.175 28.8122 126.076 33.8893C124.365 41.794 115.529 47.6254 106.341 46.915C103.277 46.678 100.561 45.7427 98.3641 44.3087Z" fill="#B8B8B8"/>
<path d="M115.744 48.2182C122.192 46.4861 127.495 41.705 128.779 35.7708C129.851 30.8224 127.936 26.0539 123.657 23.0153L121.031 21.1506C121.023 21.1446 121.013 21.1403 121.003 21.1379C120.993 21.1356 120.982 21.1353 120.972 21.137C120.962 21.1388 120.952 21.1425 120.943 21.1481C120.934 21.1537 120.926 21.1609 120.92 21.1694C120.914 21.1779 120.91 21.1876 120.908 21.1977C120.905 21.2079 120.905 21.2185 120.907 21.2288C120.909 21.2391 120.912 21.2489 120.918 21.2578C120.923 21.2666 120.931 21.2743 120.939 21.2803L120.946 21.2852C125.166 24.286 127.055 28.9909 125.998 33.8723C124.298 41.7268 115.482 47.5422 106.347 46.8357C103.403 46.608 100.657 45.7111 98.4075 44.242C98.39 44.2301 98.3686 44.2257 98.3479 44.2296C98.3272 44.2336 98.3089 44.2456 98.2971 44.2631C98.2852 44.2805 98.2808 44.3019 98.2848 44.3227C98.2887 44.3434 98.3007 44.3617 98.3182 44.3736L100.944 46.2382C103.219 47.7237 105.99 48.6293 108.961 48.859C111.278 49.0381 113.576 48.8005 115.744 48.2182ZM122.678 22.5152L123.565 23.145C127.79 26.1455 129.681 30.8528 128.624 35.737C126.923 43.5914 118.108 49.407 108.973 48.7004C106.028 48.4726 103.283 47.5757 101.033 46.1067L99.7707 45.2102C101.732 46.2002 103.97 46.8115 106.335 46.9943C115.546 47.7065 124.437 41.8352 126.153 33.9061C127.076 29.6463 125.785 25.5196 122.678 22.5152Z" fill="#8E8E8E"/>
<path d="M92.8026 31.3164C91.9955 35.0446 92.9185 38.5674 95.0816 41.3245L91.9132 46.6495L98.364 44.3087C100.56 45.7428 103.277 46.6782 106.341 46.9151C115.529 47.6256 124.365 41.7941 126.076 33.8894C127.787 25.9847 121.726 19.0002 112.538 18.2897C103.35 17.5791 94.5139 23.4116 92.8026 31.3164Z" fill="#8E8E8E"/>
<path d="M113.118 46.3536C119.567 44.6218 124.869 39.8404 126.154 33.9062C126.911 30.4096 126.166 26.9235 124.058 24.0903C121.555 20.7257 117.358 18.5826 112.544 18.2103C103.332 17.4979 94.4417 23.3697 92.7251 31.2995C91.9467 34.8951 92.7494 38.4551 94.9856 41.3306L91.8451 46.6088C91.8367 46.6229 91.8329 46.6392 91.8342 46.6556C91.8355 46.672 91.8418 46.6876 91.8522 46.7002C91.8626 46.713 91.8767 46.7222 91.8925 46.7265C91.9084 46.7309 91.9252 46.7301 91.9406 46.7243L98.3542 44.397C100.62 45.8679 103.379 46.7658 106.335 46.9944C108.653 47.1736 110.951 46.9358 113.118 46.3536ZM105.798 19.0048C107.95 18.4268 110.231 18.191 112.532 18.3689C117.3 18.7377 121.455 20.8576 123.931 24.1853C126.011 26.9812 126.745 30.4214 125.998 33.8724C124.298 41.7269 115.482 47.5422 106.347 46.8357C103.403 46.608 100.657 45.7111 98.4076 44.2421C98.3973 44.2353 98.3856 44.231 98.3733 44.2296C98.3611 44.2281 98.3487 44.2296 98.3371 44.2339L92.0955 46.4988L95.15 41.3653C95.1582 41.3515 95.162 41.3355 95.161 41.3195C95.16 41.3034 95.1541 41.2881 95.1442 41.2754C92.9123 38.4305 92.1083 34.8997 92.8804 31.3333C94.1525 25.4569 99.4071 20.7216 105.798 19.0048Z" fill="#8E8E8E"/>
<path d="M102.564 30.064C101.559 29.9863 100.552 30.8065 100.316 31.8974C100.08 32.9873 100.704 33.9346 101.709 34.0123C102.715 34.09 103.721 33.2689 103.957 32.179C104.193 31.0881 103.569 30.1418 102.564 30.064Z" fill="#3C3C3C"/>
<path d="M102.333 34.0306C103.138 33.8144 103.841 33.0925 104.035 32.1959C104.16 31.6166 104.052 31.0426 103.739 30.621C103.461 30.2476 103.046 30.0215 102.57 29.9848C101.528 29.9043 100.482 30.7547 100.238 31.8806C100.113 32.4598 100.221 33.0339 100.535 33.4557C100.813 33.8291 101.228 34.0549 101.703 34.0917C101.915 34.108 102.127 34.0858 102.333 34.0306ZM102.557 30.1433C102.987 30.1766 103.361 30.3799 103.611 30.716C103.897 31.1007 103.995 31.6277 103.879 32.1621C103.652 33.2133 102.681 34.0076 101.715 33.933C101.286 33.8999 100.912 33.6966 100.662 33.3607C100.376 32.9757 100.278 32.4486 100.394 31.9143C100.621 30.863 101.592 30.0687 102.557 30.1433Z" fill="#8E8E8E"/>
<path d="M117.17 31.1934C116.165 31.1157 115.158 31.9359 114.922 33.0268C114.686 34.1168 115.31 35.064 116.315 35.1417C117.321 35.2195 118.327 34.3983 118.563 33.3084C118.799 32.2174 118.175 31.2712 117.17 31.1934Z" fill="#3C3C3C"/>
<path d="M116.939 35.1598C117.744 34.9437 118.447 34.2218 118.641 33.3252C118.766 32.7458 118.659 32.1717 118.345 31.7502C118.067 31.3768 117.652 31.1508 117.176 31.1139C116.134 31.0335 115.088 31.8839 114.845 33.0097C114.719 33.5889 114.827 34.163 115.141 34.5849C115.419 34.9583 115.834 35.1841 116.309 35.2208C116.521 35.2373 116.734 35.2151 116.939 35.1598ZM116.584 31.3288C116.773 31.2779 116.968 31.2575 117.164 31.2727C117.593 31.3059 117.967 31.5092 118.217 31.8453C118.504 32.2299 118.601 32.7571 118.486 33.2914C118.258 34.3426 117.287 35.1371 116.321 35.0623C115.892 35.0292 115.519 34.8259 115.269 34.49C114.982 34.1051 114.884 33.5778 115 33.0436C115.181 32.2049 115.836 31.5297 116.584 31.3288Z" fill="#8E8E8E"/>
<path d="M109.867 30.6287C108.862 30.551 107.855 31.3712 107.619 32.4621C107.383 33.5521 108.007 34.4993 109.012 34.577C110.018 34.6548 111.024 33.8336 111.26 32.7437C111.496 31.6528 110.872 30.7065 109.867 30.6287Z" fill="#3C3C3C"/>
<path d="M109.636 34.5953C110.441 34.3792 111.144 33.6573 111.338 32.7607C111.463 32.1813 111.356 31.6073 111.042 31.1858C110.764 30.8123 110.349 30.5863 109.873 30.5495C108.831 30.4689 107.785 31.3194 107.542 32.4453C107.416 33.0246 107.524 33.5986 107.838 34.0205C108.116 34.3938 108.531 34.6197 109.006 34.6564C109.218 34.6728 109.431 34.6506 109.636 34.5953ZM109.861 30.7081C110.29 30.7413 110.664 30.9447 110.914 31.2808C111.201 31.6654 111.298 32.1926 111.183 32.7268C110.955 33.778 109.984 34.5724 109.018 34.4977C108.589 34.4646 108.216 34.2613 107.966 33.9254C107.679 33.5405 107.581 33.0133 107.697 32.4791C107.924 31.428 108.895 30.6335 109.861 30.7081Z" fill="#8E8E8E"/>
</g>
</g>
<defs>
<clipPath id="clip0_3359_26907">
<rect width="180" height="180" fill="white"/>
</clipPath>
<clipPath id="clip1_3359_26907">
<rect width="100.512" height="109.008" fill="white" transform="translate(16.2617 33.894) rotate(5.85459)"/>
</clipPath>
<clipPath id="clip2_3359_26907">
<rect width="57.024" height="52.2" fill="white" transform="matrix(-0.981437 -0.191785 -0.191785 0.981437 170.724 101.353)"/>
</clipPath>
<clipPath id="clip3_3359_26907">
<rect width="62.136" height="48.096" fill="white" transform="matrix(-0.992077 -0.125629 -0.125629 0.992077 163.623 82.2856)"/>
</clipPath>
<clipPath id="clip4_3359_26907">
<rect width="73.008" height="68.112" fill="white" transform="matrix(-0.991517 0.129975 0.129975 0.991517 82.312 87.0564)"/>
</clipPath>
<clipPath id="clip5_3359_26907">
<rect width="39.888" height="30.96" fill="white" transform="matrix(-0.965767 0.259412 0.259412 0.965767 124.325 13.8601)"/>
</clipPath>
</defs>
</svg>
